<svg width="388" height="66" viewBox="0 0 388 66" fill="none" xmlns="http://www.w3.org/2000/svg">
<path d="M85.3027 41.8945C85.3027 43.0827 85.0749 44.1976 84.6191 45.2393C84.1797 46.2809 83.5693 47.1924 82.7881 47.9736C82.0068 48.7549 81.0954 49.3734 80.0537 49.8291C79.012 50.2686 77.8971 50.4883 76.709 50.4883H74.2188C73.0306 50.4883 71.9076 50.2686 70.8496 49.8291C69.8079 49.3734 68.8965 48.7549 68.1152 47.9736C67.334 47.1924 66.7155 46.2809 66.2598 45.2393C65.8203 44.1976 65.6006 43.0827 65.6006 41.8945V23.0957C65.6006 21.9076 65.8203 20.7926 66.2598 19.751C66.7155 18.7093 67.334 17.7979 68.1152 17.0166C68.8965 16.2354 69.8079 15.625 70.8496 15.1855C71.9076 14.7298 73.0306 14.502 74.2188 14.502H76.709C77.8971 14.502 79.012 14.7298 80.0537 15.1855C81.0954 15.625 82.0068 16.2354 82.7881 17.0166C83.5693 17.7979 84.1797 18.7093 84.6191 19.751C85.0749 20.7926 85.3027 21.9076 85.3027 23.0957V41.8945ZM82.1533 23.0957C82.1533 22.3145 82.0068 21.5902 81.7139 20.9229C81.4209 20.2393 81.0221 19.6452 80.5176 19.1406C80.013 18.6361 79.4189 18.2373 78.7354 17.9443C78.068 17.6514 77.3438 17.5049 76.5625 17.5049H74.3652C73.584 17.5049 72.8516 17.6514 72.168 17.9443C71.5007 18.2373 70.9066 18.6361 70.3857 19.1406C69.8812 19.6452 69.4824 20.2393 69.1895 20.9229C68.8965 21.5902 68.75 22.3145 68.75 23.0957V41.8945C68.75 42.6758 68.8965 43.4082 69.1895 44.0918C69.4824 44.7591 69.8812 45.3532 70.3857 45.874C70.9066 46.3786 71.5007 46.7773 72.168 47.0703C72.8516 47.3633 73.584 47.5098 74.3652 47.5098H76.5625C77.3438 47.5098 78.068 47.3633 78.7354 47.0703C79.4189 46.7773 80.013 46.3786 80.5176 45.874C81.0221 45.3532 81.4209 44.7591 81.7139 44.0918C82.0068 43.4082 82.1533 42.6758 82.1533 41.8945V23.0957ZM92.3096 50V14.9902H95.459V46.9971H108.862V50H92.3096ZM113.867 50V14.9902H133.569V17.9932H117.017V31.0059H130.42V34.0088H117.017V46.9971H133.569V50H113.867ZM148.096 17.9932V50H144.946V17.9932H136.597V14.9902H156.445V17.9932H148.096ZM161.475 50V14.9902H164.624V50H161.475ZM194.214 50V26.001L193.994 27.4902L185.864 50H184.204L176.001 27.4902L175.806 26.001V50H172.656V14.9902H174.292L184.912 43.7012L185.01 44.9951L185.107 43.7012L195.703 14.9902H197.363V50H194.214ZM216.895 50V14.9902H236.597V17.9932H220.044V31.0059H233.447V34.0088H220.044V46.9971H236.597V50H216.895ZM261.816 41.8945C261.816 43.0827 261.572 44.1976 261.084 45.2393C260.612 46.2809 259.969 47.1924 259.155 47.9736C258.358 48.7549 257.422 49.3734 256.348 49.8291C255.29 50.2686 254.167 50.4883 252.979 50.4883H250.464C249.276 50.4883 248.145 50.2686 247.07 49.8291C246.012 49.3734 245.076 48.7549 244.263 47.9736C243.465 47.1924 242.822 46.2809 242.334 45.2393C241.862 44.1976 241.626 43.0827 241.626 41.8945V40.5029L244.775 39.9902V41.8945C244.775 42.6758 244.93 43.4082 245.239 44.0918C245.565 44.7591 245.996 45.3532 246.533 45.874C247.07 46.3786 247.689 46.7773 248.389 47.0703C249.105 47.3633 249.854 47.5098 250.635 47.5098H252.832C253.613 47.5098 254.354 47.3633 255.054 47.0703C255.754 46.7773 256.372 46.3786 256.909 45.874C257.446 45.3532 257.869 44.7591 258.179 44.0918C258.504 43.4082 258.667 42.6758 258.667 41.8945V40.8447C258.667 39.6403 258.431 38.6393 257.959 37.8418C257.487 37.0443 256.86 36.3688 256.079 35.8154C255.298 35.2458 254.411 34.7656 253.418 34.375C252.441 33.9844 251.432 33.5938 250.391 33.2031C249.349 32.8125 248.332 32.3812 247.339 31.9092C246.362 31.4372 245.483 30.8512 244.702 30.1514C243.921 29.4352 243.294 28.5645 242.822 27.5391C242.35 26.5137 242.114 25.2523 242.114 23.7549V23.0957C242.114 21.9076 242.334 20.7926 242.773 19.751C243.229 18.7093 243.848 17.7979 244.629 17.0166C245.41 16.2354 246.322 15.625 247.363 15.1855C248.421 14.7298 249.544 14.502 250.732 14.502H252.979C254.167 14.502 255.282 14.7298 256.323 15.1855C257.365 15.625 258.276 16.2354 259.058 17.0166C259.839 17.7979 260.449 18.7093 260.889 19.751C261.344 20.7926 261.572 21.9076 261.572 23.0957V23.999L258.423 24.5117V23.0957C258.423 22.3145 258.276 21.5902 257.983 20.9229C257.69 20.2393 257.292 19.6452 256.787 19.1406C256.283 18.6361 255.688 18.2373 255.005 17.9443C254.338 17.6514 253.613 17.5049 252.832 17.5049H250.879C250.098 17.5049 249.365 17.6514 248.682 17.9443C248.014 18.2373 247.42 18.6361 246.899 19.1406C246.395 19.6452 245.996 20.2393 245.703 20.9229C245.41 21.5902 245.264 22.3145 245.264 23.0957V23.7549C245.264 24.8779 245.5 25.8219 245.972 26.5869C246.444 27.3519 247.07 28.0111 247.852 28.5645C248.633 29.1016 249.512 29.5736 250.488 29.9805C251.481 30.3711 252.498 30.778 253.54 31.2012C254.582 31.6081 255.591 32.0638 256.567 32.5684C257.56 33.0566 258.447 33.667 259.229 34.3994C260.01 35.1156 260.636 35.9945 261.108 37.0361C261.58 38.0778 261.816 39.3473 261.816 40.8447V41.8945ZM287.793 41.8945C287.793 43.0827 287.565 44.1976 287.109 45.2393C286.67 46.2809 286.06 47.1924 285.278 47.9736C284.497 48.7549 283.586 49.3734 282.544 49.8291C281.502 50.2686 280.387 50.4883 279.199 50.4883H276.709C275.521 50.4883 274.398 50.2686 273.34 49.8291C272.298 49.3734 271.387 48.7549 270.605 47.9736C269.824 47.1924 269.206 46.2809 268.75 45.2393C268.311 44.1976 268.091 43.0827 268.091 41.8945V23.0957C268.091 21.9076 268.311 20.7926 268.75 19.751C269.206 18.7093 269.824 17.7979 270.605 17.0166C271.387 16.2354 272.298 15.625 273.34 15.1855C274.398 14.7298 275.521 14.502 276.709 14.502H279.199C280.387 14.502 281.502 14.7298 282.544 15.1855C283.586 15.625 284.497 16.2354 285.278 17.0166C286.06 17.7979 286.67 18.7093 287.109 19.751C287.565 20.7926 287.793 21.9076 287.793 23.0957V24.5117L284.644 25V23.0957C284.644 22.3145 284.497 21.5902 284.204 20.9229C283.911 20.2393 283.512 19.6452 283.008 19.1406C282.503 18.6361 281.909 18.2373 281.226 17.9443C280.558 17.6514 279.834 17.5049 279.053 17.5049H276.855C276.074 17.5049 275.342 17.6514 274.658 17.9443C273.991 18.2373 273.397 18.6361 272.876 19.1406C272.371 19.6452 271.973 20.2393 271.68 20.9229C271.387 21.5902 271.24 22.3145 271.24 23.0957V41.8945C271.24 42.6758 271.387 43.4082 271.68 44.0918C271.973 44.7591 272.371 45.3532 272.876 45.874C273.397 46.3786 273.991 46.7773 274.658 47.0703C275.342 47.3633 276.074 47.5098 276.855 47.5098H279.053C279.834 47.5098 280.558 47.3633 281.226 47.0703C281.909 46.7773 282.503 46.3786 283.008 45.874C283.512 45.3532 283.911 44.7591 284.204 44.0918C284.497 43.4082 284.644 42.6758 284.644 41.8945V39.9902L287.793 40.5029V41.8945ZM314.014 41.8945C314.014 43.0827 313.786 44.1976 313.33 45.2393C312.891 46.2809 312.28 47.1924 311.499 47.9736C310.718 48.7549 309.806 49.3734 308.765 49.8291C307.723 50.2686 306.608 50.4883 305.42 50.4883H302.93C301.742 50.4883 300.618 50.2686 299.561 49.8291C298.519 49.3734 297.607 48.7549 296.826 47.9736C296.045 47.1924 295.426 46.2809 294.971 45.2393C294.531 44.1976 294.312 43.0827 294.312 41.8945V23.0957C294.312 21.9076 294.531 20.7926 294.971 19.751C295.426 18.7093 296.045 17.7979 296.826 17.0166C297.607 16.2354 298.519 15.625 299.561 15.1855C300.618 14.7298 301.742 14.502 302.93 14.502H305.42C306.608 14.502 307.723 14.7298 308.765 15.1855C309.806 15.625 310.718 16.2354 311.499 17.0166C312.28 17.7979 312.891 18.7093 313.33 19.751C313.786 20.7926 314.014 21.9076 314.014 23.0957V41.8945ZM310.864 23.0957C310.864 22.3145 310.718 21.5902 310.425 20.9229C310.132 20.2393 309.733 19.6452 309.229 19.1406C308.724 18.6361 308.13 18.2373 307.446 17.9443C306.779 17.6514 306.055 17.5049 305.273 17.5049H303.076C302.295 17.5049 301.562 17.6514 300.879 17.9443C300.212 18.2373 299.618 18.6361 299.097 19.1406C298.592 19.6452 298.193 20.2393 297.9 20.9229C297.607 21.5902 297.461 22.3145 297.461 23.0957V41.8945C297.461 42.6758 297.607 43.4082 297.9 44.0918C298.193 44.7591 298.592 45.3532 299.097 45.874C299.618 46.3786 300.212 46.7773 300.879 47.0703C301.562 47.3633 302.295 47.5098 303.076 47.5098H305.273C306.055 47.5098 306.779 47.3633 307.446 47.0703C308.13 46.7773 308.724 46.3786 309.229 45.874C309.733 45.3532 310.132 44.7591 310.425 44.0918C310.718 43.4082 310.864 42.6758 310.864 41.8945V23.0957ZM321.021 50V14.9902H324.17V46.9971H337.573V50H321.021ZM355.713 41.8457H344.629L342.334 50H339.062L349.316 14.9902H350.977L361.279 50H358.032L355.713 41.8457ZM345.483 38.8428H354.883L350.269 22.7051L350.171 21.4111L350.073 22.7051L345.483 38.8428ZM382.227 50L372.729 35.0586H368.408V50H365.259V14.9902H376.367C377.555 14.9902 378.67 15.2181 379.712 15.6738C380.754 16.1133 381.665 16.7236 382.446 17.5049C383.228 18.2861 383.838 19.2057 384.277 20.2637C384.733 21.3053 384.961 22.4202 384.961 23.6084V26.4404C384.961 27.6286 384.733 28.7516 384.277 29.8096C383.838 30.8512 383.228 31.7627 382.446 32.5439C381.665 33.3252 380.754 33.9437 379.712 34.3994C378.67 34.8389 377.555 35.0586 376.367 35.0586L385.864 50H382.227ZM381.812 23.6084C381.812 22.8271 381.665 22.1029 381.372 21.4355C381.079 20.752 380.68 20.1579 380.176 19.6533C379.671 19.1325 379.077 18.7256 378.394 18.4326C377.726 18.1396 377.002 17.9932 376.221 17.9932H368.408V32.0557H376.221C377.002 32.0557 377.726 31.9092 378.394 31.6162C379.077 31.3232 379.671 30.9245 380.176 30.4199C380.68 29.8991 381.079 29.305 381.372 28.6377C381.665 27.9541 381.812 27.2217 381.812 26.4404V23.6084Z" fill="white"/>
<path d="M29.9338 0C13.4018 0 0 13.2076 0 29.5C0 40.4326 6.03452 49.9762 15 55.0723V7L33.6513 7C35.6295 7 37.4858 7.30518 39.2201 7.91555C40.9815 8.50412 42.5125 9.32158 43.8133 10.3679C45.114 11.4143 46.1302 12.6459 46.8619 14.0628C47.6206 15.458 48 16.9512 48 18.5425V19.0003C48 20.112 47.8103 21.1802 47.4309 22.2047C47.0787 23.2075 46.5638 24.1448 45.8863 25.0168C45.2089 25.8887 44.4094 26.6844 43.4881 27.4038C42.5667 28.1013 41.537 28.6899 40.3989 29.1695C41.537 29.649 42.5667 30.2485 43.4881 30.9679C44.4094 31.6654 45.2089 32.4611 45.8863 33.3549C46.5638 34.2268 47.0787 35.1751 47.4309 36.1996C47.8103 37.2024 48 38.2596 48 39.3713V42.3796C48 43.9709 47.6206 45.4641 46.8619 46.8593C46.1302 48.2544 45.114 49.4751 43.8133 50.5215C42.5125 51.5678 40.9815 52.3962 39.2201 53.0065C39.1249 53.0388 39.0335 53.0706 38.9439 53.1017C37.3996 53.638 36.3747 53.9939 25.6031 53.8894V49.8675H33.4074C34.7082 49.8675 35.9141 49.6713 37.0251 49.2789C38.1632 48.8866 39.1523 48.3525 39.9924 47.6767C40.8595 47.001 41.537 46.2162 42.0248 45.3224C42.5125 44.4069 42.7564 43.4259 42.7564 42.3796V38.6847C42.7564 37.6383 42.5125 36.6683 42.0248 35.7745C41.537 34.859 40.8595 34.0633 39.9924 33.3876C39.1523 32.7118 38.1632 32.1777 37.0251 31.7853C35.9141 31.393 34.7082 31.1968 33.4074 31.1968H25.6031V27.1749H33.4074C34.7082 27.1749 35.9141 26.9787 37.0251 26.5863C38.1632 26.1939 39.1523 25.6598 39.9924 24.9841C40.8595 24.2865 41.537 23.4909 42.0248 22.5971C42.5125 21.6815 42.7564 20.7006 42.7564 19.6543V18.5425C42.7564 17.4962 42.5125 16.5261 42.0248 15.6324C41.537 14.7168 40.8595 13.9211 39.9924 13.2454C39.1523 12.5478 38.1632 12.0028 37.0251 11.6105C35.9141 11.2181 34.7082 11.0219 33.4074 11.0219H20.4373L20.4248 31.1968L20.4075 57.4747L20.4019 66L41.6127 56.6704C52.3419 52.1857 59.8676 41.709 59.8676 29.5C59.8676 13.2076 46.4658 0 29.9338 0Z" fill="white"/>
</svg>
