<svg width="20" height="20" viewBox="0 0 20 20" fill="none" xmlns="http://www.w3.org/2000/svg">
<path d="M10 15L11 13V7.858C12.721 7.411 14 5.858 14 4C14 1.794 12.206 0 10 0C7.794 0 6 1.794 6 4C6 5.858 7.279 7.411 9 7.858V13L10 15ZM8 4C8 2.897 8.897 2 10 2C11.103 2 12 2.897 12 4C12 5.103 11.103 6 10 6C8.897 6 8 5.103 8 4Z" fill="black"/>
<path d="M14.267 9.00096L13.734 10.8551C16.325 11.5437 18 12.868 18 14.2298C18 16.0493 14.715 18.0766 10 18.0766C5.285 18.0766 2 16.0493 2 14.2298C2 12.868 3.675 11.5437 6.267 10.8542L5.734 9C2.197 9.94055 0 11.9438 0 14.2298C0 17.4649 4.393 20 10 20C15.607 20 20 17.4649 20 14.2298C20 11.9438 17.803 9.94055 14.267 9.00096Z" fill="black"/>
</svg>
