<svg width="19" height="19" viewBox="0 0 19 19" fill="none" xmlns="http://www.w3.org/2000/svg">
<path d="M13.1179 17.4165C13.3282 17.4177 13.5366 17.3771 13.731 17.2969C13.9253 17.2167 14.1018 17.0986 14.25 16.9495L16.3954 14.804C16.5429 14.6557 16.6256 14.4551 16.6256 14.2459C16.6256 14.0368 16.5429 13.8361 16.3954 13.6878L13.2288 10.5211C13.0804 10.3737 12.8798 10.2909 12.6706 10.2909C12.4615 10.2909 12.2608 10.3737 12.1125 10.5211L10.8459 11.7799C9.96889 11.546 9.15668 11.1156 8.47085 10.5211C7.87799 9.83419 7.44773 9.02238 7.2121 8.14612L8.47085 6.87945C8.6183 6.73112 8.70107 6.53047 8.70107 6.32133C8.70107 6.11218 8.6183 5.91153 8.47085 5.7632L5.30419 2.59653C5.15586 2.44909 4.95521 2.36632 4.74606 2.36632C4.53692 2.36632 4.33627 2.44909 4.18794 2.59653L2.05044 4.74987C1.90131 4.8981 1.78321 5.07455 1.70301 5.26892C1.62282 5.46329 1.58214 5.67169 1.58335 5.88195C1.65518 8.92377 2.87066 11.8268 4.98752 14.0124C7.17309 16.1292 10.0761 17.3447 13.1179 17.4165ZM4.75002 4.28278L6.80044 6.3332L5.77919 7.35445C5.68246 7.44506 5.61003 7.55849 5.56854 7.68436C5.52704 7.81023 5.51781 7.9445 5.54169 8.07487C5.83759 9.39724 6.46407 10.623 7.36252 11.6374C8.37614 12.537 9.60217 13.1636 10.925 13.4582C11.0534 13.485 11.1865 13.4796 11.3122 13.4423C11.438 13.4049 11.5525 13.337 11.6454 13.2445L12.6667 12.1995L14.7171 14.2499L13.1338 15.8332C10.5084 15.7656 8.00338 14.7178 6.11169 12.8961C4.28524 11.0036 3.23446 8.49533 3.16669 5.86612L4.75002 4.28278ZM15.8334 8.7082H17.4167C17.4372 7.76691 17.267 6.83121 16.9162 5.95748C16.5654 5.08376 16.0413 4.2901 15.3755 3.62435C14.7098 2.9586 13.9161 2.43453 13.0424 2.08373C12.1687 1.73294 11.233 1.56267 10.2917 1.5832V3.16653C11.0263 3.14112 11.7582 3.26708 12.4421 3.53659C13.1259 3.80609 13.747 4.21337 14.2668 4.73312C14.7865 5.25286 15.1938 5.87396 15.4633 6.5578C15.7328 7.24164 15.8588 7.97361 15.8334 8.7082Z" fill="black"/>
<path d="M10.2917 6.33333C11.9542 6.33333 12.6667 7.04583 12.6667 8.70833H14.25C14.25 6.15917 12.8408 4.75 10.2917 4.75V6.33333Z" fill="black"/>
</svg>
