<svg width="462" height="391" viewBox="0 0 462 391" fill="none" xmlns="http://www.w3.org/2000/svg">
<path d="M444.407 320H16.5931C7.44384 320 0 312.566 0 303.427V252H461V303.427C461 312.566 453.557 320 444.407 320Z" fill="#E6E6E6"/>
<path d="M286.265 311.318H177.016V389.353H286.265V311.318Z" fill="#E6E6E6"/>
<path d="M292.836 379.496H170.445V389.353H292.836V379.496Z" fill="#E6E6E6"/>
<path d="M461.228 273.533H0V11.4028C0 5.11543 5.11543 0 11.4028 0H449.825C456.112 0 461.228 5.11543 461.228 11.4028V273.533Z" fill="#3F3D56"/>
<path d="M450.138 11.9104H10.6785V259.158H450.138V11.9104Z" fill="white"/>
<path d="M95.785 159.277C99.1486 156.497 103.309 155.98 105.077 158.121C106.846 160.262 105.552 164.249 102.187 167.029C100.858 168.158 99.2783 168.952 97.5795 169.345L83.1793 180.941L77.8818 174.068L92.6402 163.366C93.3468 161.771 94.4252 160.369 95.785 159.277H95.785Z" fill="#FFB6B6"/>
<path d="M12.5539 185.44C12.5466 184.927 12.5514 180.454 15.8631 177.627C19.6673 174.379 25.0352 175.693 26.9179 176.154C31.2671 177.219 31.6238 179.085 35.7081 181.002C43.3495 184.589 33.7751 182.753 38.322 181.603C39.8958 181.205 62.5381 179.635 68.1742 176.166C79.1357 169.419 86.6044 165.328 86.6044 165.328L91.4869 175.093C91.4869 175.093 84.4268 184.91 74.4904 192.182C64.2978 199.642 59.2015 203.372 51.4565 204.813C50.7896 204.938 34.3863 207.738 21.1748 197.868C18.1613 195.616 12.6399 191.491 12.5539 185.44L12.5539 185.44Z" fill="#3276B9"/>
<path d="M27.6997 160.605C37.0933 160.605 44.7083 152.99 44.7083 143.597C44.7083 134.203 37.0933 126.588 27.6997 126.588C18.3061 126.588 10.691 134.203 10.691 143.597C10.691 152.99 18.3061 160.605 27.6997 160.605Z" fill="#FFB6B6"/>
<path d="M160.905 257.867L143.388 239.937L134.346 249.369L147.397 266.561L160.341 268.041L160.905 257.867Z" fill="#FFB6B6"/>
<path d="M60.8846 224.244C61.9092 224.329 65.165 224.981 68.277 223.269C70.4008 222.101 71.49 220.363 71.8579 219.811C76.4219 212.956 93.9395 202.267 109.661 201.609C113.221 201.46 115.565 201.873 117.695 202.983C120.715 204.558 121.921 206.813 125.754 212.096C127.85 214.986 130.17 217.708 132.292 220.58C144.714 237.39 149.423 238.71 148.942 244.099C148.408 250.078 141.959 255.751 137.673 255.096C135.917 254.828 135.238 253.608 132.893 251.137C126.016 243.892 123.171 245.231 118.276 239.681C112.56 233.203 113.308 227.831 110.326 227.623C107.561 227.431 106.386 232.014 100.482 238.101C97.7805 240.887 95.8568 242.165 89.9961 246.231C67.1733 262.064 66.809 263.177 62.2031 264.439C60.188 264.992 45.8852 268.913 40.7902 262.673C32.817 252.908 51.6529 223.477 60.8846 224.244V224.244Z" fill="#2F2E41"/>
<path d="M155.55 261.919C156.838 261.341 158.344 260.664 158.829 259.109C159.157 258.056 158.968 256.759 158.29 255.862C157.508 254.827 156.35 254.691 156.397 254.508C156.469 254.229 159.206 254.338 162.211 255.4C162.778 255.601 165.347 256.539 168.615 259.09C171.233 261.134 170.88 261.544 172.522 262.723C177.562 266.34 182.288 263.489 185.015 266.882C186.068 268.191 186.517 270.05 186.074 271.553C185.184 274.572 180.859 275.611 178.495 276.147C172.802 277.439 168.493 276.384 163.993 275.626C148.691 273.048 140.093 275.396 138.942 271.851C138.724 271.18 139.078 271.237 140.258 266.313C141.422 261.454 141.384 260.119 142.376 259.73C143.869 259.144 144.871 261.809 148.632 262.721C151.965 263.529 154.715 262.294 155.55 261.919H155.55Z" fill="#2F2E41"/>
<path d="M129.763 316.524L125.338 291.851L112.559 294.578L113.704 316.132L123.584 324.626L129.763 316.524Z" fill="#FFB6B6"/>
<path d="M65.8821 232.537C66.6821 233.183 69.0098 235.551 72.5463 235.882C74.9597 236.107 76.8366 235.282 77.4513 235.031C85.0769 231.922 105.574 232.914 118.953 241.198C121.982 243.074 123.69 244.731 124.829 246.846C126.444 249.845 126.175 252.388 126.38 258.912C126.492 262.48 126.883 266.036 127.026 269.603C127.865 290.488 131.02 294.224 127.596 298.413C123.796 303.061 115.275 304.134 112.096 301.186C110.794 299.978 110.917 298.586 110.364 295.225C108.742 285.369 105.637 284.879 104.702 277.538C103.61 268.968 107.246 264.943 104.895 263.097C102.715 261.385 99.1692 264.517 90.8656 266.239C87.066 267.027 84.7567 267.004 77.6241 267.077C49.8483 267.363 48.9221 268.079 44.4019 266.537C42.4242 265.863 28.3874 261.076 27.6756 253.052C26.5618 240.494 58.674 226.719 65.8821 232.537H65.8821Z" fill="#2F2E41"/>
<path d="M123.057 316.869C124.448 317.114 126.074 317.4 127.348 316.385C128.211 315.699 128.783 314.519 128.726 313.396C128.66 312.101 127.778 311.338 127.92 311.213C128.136 311.022 130.339 312.649 132.229 315.216C132.586 315.7 134.185 317.919 135.456 321.865C136.475 325.027 135.953 325.168 136.65 327.065C138.788 332.888 144.3 333.183 144.652 337.522C144.787 339.196 144.115 340.987 142.904 341.982C140.473 343.98 136.311 342.411 134.053 341.527C128.617 339.399 125.644 336.107 122.346 332.953C111.132 322.226 102.699 319.341 103.738 315.762C103.934 315.084 104.195 315.33 107.936 311.918C111.629 308.551 112.346 307.425 113.386 307.66C114.95 308.014 114.283 310.782 116.883 313.648C119.187 316.188 122.156 316.711 123.057 316.869Z" fill="#2F2E41"/>
<path d="M30.0185 146.848C30.6806 144.48 29.849 143.617 30.6966 142.553C30.6967 142.553 31.0378 142.125 34.0874 140.971C33.1876 135.75 33.8614 134.868 33.8614 134.868C34.6378 133.85 36.1933 133.604 37.2522 133.737C39.4917 134.019 39.8881 136.043 41.3211 135.998C43.3007 135.935 45.6749 131.973 44.9379 128.538C44.3368 125.737 41.7448 123.656 41.0951 124.017C40.4508 124.375 38.1317 122.797 37.2522 123.113C36.6515 123.329 33.8243 123.041 33.1832 123.339C32.4831 123.664 30.4782 125.686 30.2866 125.431C28.9545 123.661 28.9829 123.042 28.2101 122.661C26.8407 121.985 25.3519 123.234 22.7848 124.469C17.503 127.01 15.9564 125.494 13.5167 127.634C12.2842 128.715 11.6234 130.78 10.3519 134.868C8.57381 140.583 7.68477 143.441 8.5435 146.17C9.41926 148.953 10.7089 148.347 12.6124 152.274C14.7314 156.644 14.0011 159.185 16.0032 160.185C17.5507 160.959 20.0375 160.467 20.9764 159.055C22.5839 156.639 18.4289 153.369 19.8461 149.561C20.7161 147.223 23.3996 145.451 25.0453 145.944C26.9061 146.502 27.0432 149.839 28.2101 149.787C29.2093 149.743 29.9031 147.261 30.0185 146.848H30.0185Z" fill="#2F2E41"/>
<path d="M17.1335 163.124C20.6141 159.222 34.7912 163.261 36.1219 169.454C36.6692 172.001 34.6487 173.076 35.2177 176.009C36.0499 180.299 40.7621 180.006 44.2598 184.373C49.2255 190.573 44.1098 196.633 49.6851 206.978C50.8764 209.189 51.8805 211.052 53.98 212.856C58.7979 216.994 63.2816 215.575 65.7348 219.411C67.5693 222.28 66.8156 225.817 66.639 226.645C65.915 230.042 63.9527 230.869 62.57 233.653C60.2696 238.283 62.8743 241.683 63.0222 247.216C63.2072 254.138 59.5285 263.734 52.1716 266.882C43.9065 270.419 33.938 264.561 29.1143 258.744C26.2359 255.274 25.4004 252.072 24.1411 248.12C18.5133 230.458 15.3338 232.056 11.0301 218.055C6.11009 202.05 5.14288 183.299 11.0301 177.366C11.8104 176.579 13.9579 174.761 15.3251 171.488C17.1648 167.084 15.5755 164.871 17.1335 163.124Z" fill="#3376BA"/>
<path d="M68.5624 253.97C71.261 257.399 71.6793 261.57 69.497 263.287C67.3147 265.004 63.3588 263.617 60.6598 260.186C59.5628 258.831 58.8064 257.232 58.4539 255.525L47.2036 240.853L53.0168 236.419L64.549 250.729C66.1265 251.473 67.5027 252.585 68.5624 253.97H68.5624Z" fill="#FFB6B6"/>
<path d="M27.3601 177.997C27.8606 177.885 32.2407 176.977 35.6843 179.642C39.64 182.704 39.4484 188.227 39.3812 190.164C39.2259 194.639 37.4723 195.369 36.429 199.758C34.4772 207.971 38.1943 215.603 40.2479 219.819C40.9587 221.279 43.2424 225.745 47.7884 230.555C56.6297 239.909 64.5184 244.831 64.5184 244.831L56.0437 252.364C56.0437 252.364 42.5445 248.25 33.3974 240.006C24.0147 231.55 9.58566 201.632 6.59449 194.344C6.33689 193.716 9.98573 203.92 16.9527 188.972C18.5418 185.563 21.4535 179.316 27.3601 177.997H27.3601Z" fill="#3276B9"/>
<path d="M244.262 170.979L234.143 166.186C238.293 171.978 241.869 181.023 243.784 188.221C247.025 181.516 252.251 173.312 257.423 168.412L246.729 171.163C253.319 138.867 278.105 115.681 306.488 115.681L306.89 114.515C277.243 114.515 250.99 137.379 244.262 170.979Z" fill="#3F3D56"/>
<path d="M290.834 220.188H226.9C224.188 220.188 221.982 217.982 221.982 215.27C221.982 212.558 224.188 210.352 226.9 210.352H290.834C293.545 210.352 295.752 212.558 295.752 215.27C295.752 217.982 293.545 220.188 290.834 220.188Z" fill="#3275B8"/>
<path d="M375.905 220.188H311.972C309.26 220.188 307.054 217.982 307.054 215.27C307.054 212.558 309.26 210.352 311.972 210.352H375.905C378.617 210.352 380.823 212.558 380.823 215.27C380.823 217.982 378.617 220.188 375.905 220.188Z" fill="#E6E6E6"/>
<path d="M338.057 86.3997H275.911C274.344 86.3997 273.069 85.1248 273.069 83.558C273.069 81.9913 274.344 80.717 275.911 80.717H338.057C339.624 80.717 340.898 81.9913 340.898 83.558C340.898 85.1248 339.624 86.3996 338.057 86.3996V86.3997Z" fill="#3F3D56"/>
<path d="M371.406 116.715H242.562C240.996 116.715 239.721 115.44 239.721 113.873C239.721 112.306 240.996 111.032 242.562 111.032H371.406C372.972 111.032 374.247 112.306 374.247 113.873C374.247 115.44 372.972 116.715 371.406 116.715Z" fill="#3F3D56"/>
<path d="M28 390C28 390.555 28.4101 391 28.9209 391H433.079C433.59 391 434 390.555 434 390C434 389.445 433.59 389 433.079 389H28.9209C28.4101 389 28 389.445 28 390Z" fill="#3F3D56"/>
<path d="M127.063 172C126.953 172 126.843 171.996 126.733 171.989C120.23 171.576 97.9781 168.463 84.6942 145.75C83.5995 143.88 83.8152 141.503 85.2305 139.835L109.832 110.85C110.838 109.665 112.392 108.982 113.966 109C115.054 109.026 117.629 109.298 118.13 111.261C121.085 122.861 133.564 136.5 148.572 138.308C150.093 138.491 151.315 139.833 151.839 141.898C152.248 143.505 151.87 145.162 150.802 146.444L131.094 170.109C130.093 171.311 128.624 172 127.063 172V172ZM113.871 110.166C112.669 110.166 111.5 110.699 110.736 111.599L86.1345 140.584C85.0366 141.878 84.8684 143.719 85.7152 145.166C98.7062 167.378 120.453 170.421 126.809 170.825C128.106 170.911 129.353 170.364 130.183 169.367L149.891 145.702C150.719 144.71 151.011 143.427 150.695 142.182C150.386 140.964 149.628 139.61 148.429 139.466C132.925 137.599 120.036 123.52 116.986 111.546C116.739 110.576 115.251 110.198 113.941 110.167C113.918 110.166 113.895 110.166 113.871 110.166H113.871Z" fill="#3F3D56"/>
<path d="M100.243 146.594L117.619 128.326C118.807 127.078 116.946 125.156 115.757 126.406L98.3811 144.674C97.1934 145.922 99.0542 147.844 100.243 146.594Z" fill="#E6E6E6"/>
<path d="M110.304 151.65C115.143 147.36 119.348 142.394 122.791 136.944C123.7 135.505 121.402 134.185 120.497 135.617C117.168 140.886 113.103 145.645 108.425 149.791C107.149 150.923 109.033 152.776 110.304 151.65H110.304Z" fill="#E6E6E6"/>
<path d="M120.153 157.569C124.396 152.594 128.008 147.043 130.851 141.054C131.589 139.501 129.382 138.127 128.641 139.687C125.894 145.473 122.444 150.846 118.343 155.653C117.242 156.944 119.047 158.866 120.153 157.569H120.153Z" fill="#E6E6E6"/>
<path d="M112.483 125.198C122.312 125.198 130.28 117.398 130.28 107.776C130.28 98.1536 122.312 90.3533 112.483 90.3533C102.653 90.3533 94.6851 98.1536 94.6851 107.776C94.6851 117.398 102.653 125.198 112.483 125.198Z" fill="#337ABF"/>
<path d="M121.743 116.04C119.006 109.31 116.269 102.581 113.532 95.8511C113.153 94.9217 111.969 94.8887 111.6 95.8511C108.896 102.907 107.128 110.269 106.279 117.775C106.134 119.054 108.138 119.044 108.282 117.775C108.614 114.838 109.108 111.922 109.741 109.038C111.997 109.156 114.271 108.903 116.447 108.301C117.569 111.058 118.69 113.815 119.812 116.573C120.291 117.751 122.229 117.236 121.743 116.04ZM110.195 107.058C110.87 104.297 111.679 101.568 112.617 98.8838L115.687 106.431C113.889 106.902 112.05 107.112 110.195 107.058Z" fill="white"/>
</svg>
